# xmcd
#
# Track frame offsets:
#        150
#        19745
#        40627
#        61017
#        81617
#        87730
#        109605
#        129375
#        146925
#        162192
#        177237
#        193677
#
# Disc length: 2853 seconds
#
# Revision: 0
# Processed by: cddbd v1.5.1PL2 Copyright (c) Steve Scherf et al.
# Submitted via: ExactAudioCopy v0.95a3
#
DISCID=a20b230c
DTITLE=The Mob - The Mob
DYEAR=2005
DGENRE=Hard Rock
TTITLE0=One Track Mind
TTITLE1=Wait
TTITLE2=The Magic
TTITLE3=I Will Follow
TTITLE4=Guitar Solo
TTITLE5=Never Get Enough
TTITLE6=Love Will Carry On
TTITLE7=Turn To Stone
TTITLE8=No Reason Why
TTITLE9=Spaghetti Western
TTITLE10=I Want To Live Forever
TTITLE11=The Magic(remix)
EXTD=
EXTT0=
EXTT1=
EXTT2=
EXTT3=
EXTT4=
EXTT5=
EXTT6=
EXTT7=
EXTT8=
EXTT9=
EXTT10=
EXTT11=
PLAYORDER=
